<?xml version="1.0" standalone="no"?>
<!DOCTYPE svg PUBLIC "-//W3C//DTD SVG 20010904//EN"
 "http://www.w3.org/TR/2001/REC-SVG-20010904/DTD/svg10.dtd">
<svg version="1.0" xmlns="http://www.w3.org/2000/svg"
 width="250.000000pt" height="221.000000pt" viewBox="0 0 250.000000 221.000000"
 preserveAspectRatio="xMidYMid meet">
<metadata>
Created by potrace 1.15, written by Peter Selinger 2001-2017
</metadata>
<g transform="translate(0.000000,221.000000) scale(0.100000,-0.100000)"
fill="#000000" stroke="none">
<path d="M432 2054 c-22 -10 -31 -11 -26 -3 11 18 -60 2 -127 -28 -56 -24
-110 -72 -122 -105 -8 -23 6 -23 40 -1 26 17 26 17 15 -4 -7 -12 -21 -25 -32
-28 -22 -7 -26 -20 -10 -30 6 -4 8 -10 5 -15 -8 -13 6 -41 17 -34 6 4 3 -4 -5
-17 -18 -30 -14 -89 7 -104 9 -7 13 -14 11 -17 -3 -3 -8 -21 -11 -39 -12 -81
-12 -98 0 -95 6 2 8 1 3 -1 -4 -3 -4 -10 0 -16 4 -6 0 -8 -9 -4 -25 9 -30 -4
-8 -23 19 -16 19 -17 -1 -33 -10 -9 -19 -24 -19 -32 0 -8 -7 -15 -15 -15 -26
0 -30 -2 -53 -36 -24 -36 -34 -43 -30 -21 2 6 -3 11 -11 9 -12 -3 -12 0 -1 13
11 13 10 15 -4 9 -17 -7 -22 -34 -6 -34 6 0 10 -4 10 -9 0 -5 -9 -7 -19 -4
-13 3 -18 11 -14 21 4 14 3 14 -5 3 -15 -20 -16 -531 -1 -551 9 -13 10 -12 5
3 -3 10 -2 16 3 13 5 -3 11 -15 14 -26 3 -11 1 -18 -4 -14 -5 3 -9 1 -9 -4 0
-6 12 -13 27 -18 20 -5 23 -8 11 -11 -19 -5 -33 -33 -17 -33 7 0 9 -11 6 -26
-4 -23 -2 -25 19 -21 13 2 24 0 24 -4 0 -5 -7 -9 -15 -9 -9 0 -12 -6 -9 -15 4
-8 9 -13 14 -10 9 5 50 -32 50 -46 0 -6 4 -8 8 -5 5 3 9 -1 9 -9 0 -8 -4 -12
-8 -10 -4 3 -10 -7 -14 -22 -5 -20 -2 -31 11 -40 22 -16 34 -17 34 -2 0 5 5 7
10 4 6 -4 7 -11 4 -17 -5 -7 -1 -9 9 -5 10 4 17 2 17 -5 0 -6 10 -3 22 8 14
12 18 13 10 3 -6 -9 -8 -20 -4 -24 4 -5 2 -6 -3 -2 -17 9 -37 -8 -33 -28 3
-17 4 -17 20 -2 14 15 17 15 22 1 4 -11 13 -13 28 -8 19 6 21 4 12 -7 -7 -8
-8 -22 -3 -34 7 -19 8 -19 8 2 1 16 5 21 17 16 8 -3 13 -12 10 -19 -3 -8 -2
-14 3 -14 5 0 11 -9 14 -20 3 -11 11 -20 17 -20 10 0 10 3 1 14 -9 11 -10 20
-1 35 12 24 22 28 14 7 -4 -10 0 -14 13 -12 24 4 53 -15 53 -34 -1 -12 -5 -10
-18 5 -20 22 -46 32 -40 15 2 -7 8 -11 13 -11 6 0 17 -6 25 -13 19 -16 53 -29
46 -17 -7 10 22 24 34 16 4 -3 13 2 20 10 7 8 16 12 22 9 5 -3 15 0 23 6 8 7
20 8 27 4 13 -9 19 -11 40 -13 6 0 3 -8 -8 -16 -19 -14 -19 -14 2 -15 14 0 24
8 27 22 6 20 8 21 24 6 10 -8 24 -13 31 -11 6 3 12 0 12 -7 0 -6 4 -9 9 -6 4
3 6 16 4 28 -4 21 -1 23 36 24 23 0 41 -4 41 -9 0 -4 -5 -5 -12 -1 -7 4 -8 3
-4 -4 4 -6 14 -8 24 -5 14 5 15 3 5 -8 -7 -7 -13 -22 -13 -33 0 -17 2 -18 9
-6 6 8 7 18 5 22 -9 14 9 9 27 -8 15 -13 16 -21 8 -36 -9 -16 -8 -19 3 -15 7
2 12 10 10 17 -2 7 5 9 18 5 12 -4 27 -1 35 5 24 20 19 -13 -5 -35 -21 -19
-18 -58 7 -83 7 -7 13 -18 13 -23 0 -5 16 -9 35 -9 24 0 35 5 35 15 0 8 7 15
16 15 12 0 15 6 10 26 -4 15 -3 23 2 20 13 -8 22 -46 11 -46 -14 0 -10 -17 5
-23 10 -4 13 -1 10 8 -3 7 4 18 15 25 23 12 28 1 9 -18 -9 -9 -8 -12 5 -12 9
0 17 7 17 15 0 8 4 15 9 15 5 0 8 -15 6 -32 -2 -18 -1 -25 1 -15 6 18 13 21
38 11 9 -3 13 -10 10 -15 -3 -6 5 -7 19 -4 18 5 31 1 46 -14 l21 -21 0 21 c0
11 -5 17 -10 14 -11 -7 -14 18 -4 28 10 10 33 -4 28 -17 -3 -8 7 -12 30 -12
19 0 33 3 30 7 -2 4 7 10 21 13 14 4 25 13 25 22 0 8 5 12 10 9 6 -4 8 -11 5
-16 -4 -5 3 -9 15 -9 17 0 19 3 11 19 -9 16 -6 18 19 17 17 -1 30 -4 30 -8 0
-5 9 -8 20 -8 13 0 18 -5 14 -15 -5 -12 2 -15 32 -15 33 0 41 4 51 27 23 57
24 69 3 88 -11 10 -20 25 -20 34 0 10 3 12 8 5 11 -17 69 -27 77 -14 5 9 1 10
-15 5 -31 -10 -17 11 24 36 17 10 27 19 23 19 -18 0 19 26 38 26 11 1 27 3 35
5 11 3 15 -4 15 -23 1 -31 15 -52 15 -22 0 14 2 16 9 5 5 -8 11 -9 15 -3 9 15
46 11 46 -5 0 -7 7 -13 15 -13 8 0 15 5 15 10 0 6 -5 10 -11 10 -5 0 -7 5 -4
10 5 8 11 7 21 -1 11 -9 14 -8 14 5 0 9 4 16 9 16 6 0 6 -12 1 -30 -8 -26 -6
-30 11 -30 13 0 18 4 13 12 -5 8 -2 9 9 5 13 -5 17 -1 17 15 0 20 1 20 19 4
11 -10 25 -15 31 -11 6 4 16 -7 24 -25 9 -23 15 -28 19 -17 3 9 1 18 -6 21 -7
2 -4 5 6 5 10 1 17 7 16 13 -3 26 1 36 19 43 14 5 15 4 5 -6 -18 -18 -16 -28
5 -24 9 1 16 9 16 18 -1 9 4 13 12 10 17 -6 19 -33 2 -33 -6 0 -9 -2 -6 -5 12
-12 39 9 35 26 -3 13 0 16 11 12 11 -5 14 -2 9 9 -3 9 0 19 8 22 9 3 12 0 8
-10 -3 -8 1 -14 10 -14 15 0 17 16 4 37 -5 7 -1 9 13 6 14 -4 20 0 20 11 0 24
25 20 39 -7 6 -12 9 -14 7 -4 -4 11 0 17 12 17 15 1 14 2 -3 13 -12 7 -20 23
-20 39 -1 14 3 24 7 22 4 -3 8 -11 8 -19 0 -7 7 -16 16 -19 15 -6 15 -4 3 10
-12 15 -11 16 9 10 18 -6 21 -4 15 11 -6 15 -4 16 8 6 12 -10 19 -8 33 8 21
25 15 36 -8 14 -23 -23 -20 -3 4 28 13 16 16 28 10 32 -5 3 -10 13 -10 21 0 8
4 13 10 9 5 -3 18 3 28 13 17 17 17 20 3 30 -13 10 -11 11 13 7 25 -4 27 -1
23 17 -4 14 0 26 11 35 16 12 15 13 -2 6 -13 -4 -17 -3 -13 4 4 6 1 14 -5 16
-10 4 -10 6 0 6 6 1 12 9 12 19 0 15 2 15 11 2 9 -12 10 -12 5 4 -4 11 0 24
11 33 11 9 12 12 3 7 -12 -6 -13 -4 -2 7 9 10 12 75 12 255 l0 242 -27 10
c-16 6 -22 11 -15 11 13 1 17 31 3 31 -10 0 -32 -24 -28 -31 1 -2 -5 4 -14 15
-16 19 -17 19 -27 0 -10 -16 -11 -13 -5 14 3 18 2 32 -3 31 -24 -4 -44 2 -44
15 0 8 -7 22 -16 31 -9 9 -13 19 -9 23 4 4 10 1 12 -6 4 -10 8 -10 19 -1 10 8
14 8 14 0 0 -6 5 -11 10 -11 6 0 5 8 -2 19 -9 14 -16 17 -24 10 -8 -7 -14 -6
-19 1 -3 6 -11 8 -16 5 -10 -7 -1 24 13 42 6 7 2 13 -11 18 -12 3 -21 14 -21
23 0 14 2 15 10 2 5 -8 12 -11 16 -7 4 3 2 13 -4 20 -8 10 -8 17 -1 24 8 8 8
13 0 17 -6 4 -11 3 -11 -1 0 -5 -10 -9 -22 -10 -13 0 -17 1 -10 4 6 3 10 9 6
14 -3 5 -2 8 3 7 4 -2 8 -1 8 2 0 3 10 18 22 34 17 21 20 33 13 46 -7 13 -6
20 2 22 9 3 8 12 -5 31 -16 25 -16 28 -2 33 9 4 14 13 11 20 -3 7 -1 16 4 19
16 10 11 19 -20 37 -17 9 -30 22 -30 29 0 7 9 6 25 -5 37 -24 48 -20 31 12
-21 40 -55 68 -116 95 -63 29 -136 44 -125 28 9 -15 -5 -13 -35 4 -39 22 -162
20 -183 -3 -13 -14 -14 -21 -5 -30 9 -9 5 -12 -20 -12 -33 0 -47 -20 -14 -20
24 -1 75 -47 66 -62 -4 -6 -3 -8 3 -5 6 4 13 -2 16 -12 5 -19 3 -19 -29 -4
-32 16 -36 15 -84 -7 -57 -27 -75 -44 -84 -81 -6 -26 -10 -27 -86 -34 -68 -6
-80 -10 -80 -25 0 -20 -19 -30 -60 -30 -22 0 -29 6 -34 26 -9 36 -96 120 -133
128 -17 4 -39 16 -49 27 -9 10 -22 19 -29 19 -7 0 -20 -9 -29 -19 -10 -11 -31
-23 -46 -26 -40 -9 -106 -69 -126 -115 -15 -33 -23 -40 -45 -40 -40 0 -59 10
-59 30 0 15 -12 19 -79 25 -78 7 -80 8 -86 36 -7 33 -34 56 -94 84 -38 17 -44
17 -74 3 -31 -15 -33 -15 -33 3 0 14 5 18 21 13 15 -4 16 -3 6 4 -11 8 -9 15
14 36 15 14 36 26 46 26 11 0 19 5 19 10 0 6 -14 10 -32 10 -25 0 -29 3 -20
12 9 9 8 16 -5 30 -13 14 -31 18 -87 17 -39 0 -86 -7 -104 -15z m274 -188 c29
-30 41 -63 37 -103 -3 -24 -9 -43 -15 -43 -5 0 -7 -4 -4 -8 3 -4 1 -25 -4 -45
-5 -26 -4 -37 4 -38 6 0 1 -5 -12 -12 -31 -14 -42 2 -42 64 0 25 -6 51 -12 58
-11 10 -8 11 15 6 32 -8 36 5 7 23 -25 15 -18 32 13 33 19 0 19 2 -5 11 -23 8
-28 16 -28 44 0 28 3 32 18 27 9 -4 22 -12 28 -17z m1130 -73 c-4 -54 -11 -99
-16 -101 -5 -2 -6 -10 -3 -18 3 -8 0 -21 -6 -28 -8 -10 -9 -16 -1 -21 15 -9
13 -20 -11 -46 l-20 -24 12 24 c9 19 8 25 -3 32 -10 5 -14 22 -13 44 1 19 -3
35 -8 35 -5 0 -7 7 -3 15 3 8 1 15 -4 15 -5 0 -8 8 -8 18 1 9 -2 30 -6 45 -6
25 -1 34 32 68 61 60 66 55 58 -58z m-703 -356 c17 -16 27 -33 23 -42 -3 -8
-2 -15 2 -15 5 0 26 -28 47 -62 l39 -61 21 28 c11 15 37 51 58 79 20 28 35 57
32 64 -3 8 3 16 15 19 11 3 20 11 20 19 0 7 5 16 12 20 6 4 8 3 5 -3 -4 -6 8
-18 27 -27 35 -17 105 -87 107 -109 1 -13 -2 -51 -4 -53 -1 -1 -13 -5 -25 -9
-21 -6 -23 -5 -13 13 24 45 4 113 -32 112 -7 -1 -6 -6 4 -13 41 -32 27 -96
-25 -115 -18 -7 -42 -22 -52 -34 -19 -22 -19 -22 1 -8 18 14 19 14 6 -2 -10
-14 -18 -15 -32 -7 -13 6 -19 6 -19 -1 0 -5 5 -10 11 -10 7 0 0 -9 -15 -21
-15 -12 -35 -19 -46 -16 -14 3 -17 1 -13 -11 5 -11 2 -14 -10 -9 -15 5 -16 3
-8 -12 6 -10 18 -21 26 -25 9 -3 13 -2 10 3 -3 5 -1 12 5 16 5 3 10 2 10 -4 0
-20 141 -33 148 -13 2 7 -5 12 -16 12 -28 0 -55 34 -47 59 14 46 59 45 105 -1
17 -17 34 -24 53 -22 16 1 27 -2 27 -10 0 -8 -18 -12 -52 -11 -40 0 -53 -4
-53 -15 0 -21 32 -24 60 -6 32 21 31 15 -1 -34 -30 -45 -66 -54 -84 -20 -6 11
-15 18 -21 15 -5 -4 -6 -13 0 -24 8 -15 5 -16 -23 -13 -22 3 -38 -2 -47 -12
-8 -9 -20 -23 -27 -31 -7 -8 -8 -16 -3 -19 5 -4 3 -23 -6 -46 -16 -39 -17 -40
-35 -23 -19 17 -20 17 -34 -2 -8 -10 -14 -24 -14 -29 -1 -6 -8 1 -16 17 -17
31 -21 33 -45 11 -17 -15 -18 -13 -29 25 -6 23 -9 45 -6 49 3 5 -7 21 -21 36
-20 22 -32 27 -59 24 -28 -3 -31 -2 -23 13 6 11 5 20 0 24 -6 3 -15 -4 -21
-15 -20 -37 -55 -25 -92 33 -41 65 -42 67 -29 67 7 0 16 -11 21 -25 10 -27 55
-44 72 -27 16 16 0 32 -35 33 -18 0 -26 3 -18 6 8 3 24 16 35 28 12 12 32 28
45 34 20 11 26 10 44 -7 28 -28 17 -67 -24 -81 -17 -6 -28 -14 -25 -19 7 -12
140 4 144 17 3 9 7 9 18 0 11 -9 18 -9 29 1 20 17 19 31 -2 23 -12 -5 -15 -2
-10 9 4 12 1 14 -13 11 -19 -5 -77 32 -63 39 5 3 2 3 -6 1 -17 -4 -43 16 -35
28 3 5 -12 17 -33 26 -21 10 -41 23 -45 28 -14 18 -8 68 10 89 17 20 17 20 -8
4 -26 -16 -33 -62 -15 -102 7 -16 5 -17 -16 -11 -31 10 -30 8 -31 44 -1 37 43
89 105 124 20 11 37 25 38 31 0 6 3 4 6 -4 4 -8 20 -27 36 -43z m904 -176 c3
-12 17 -23 34 -26 16 -4 31 -10 34 -15 3 -4 -5 -6 -17 -2 -14 3 -19 2 -14 -6
4 -7 15 -12 24 -12 23 0 242 -56 249 -64 11 -10 -12 -7 -119 18 -57 14 -121
28 -143 31 l-40 7 53 -26 c29 -14 51 -30 48 -35 -4 -5 4 -11 16 -13 19 -3 17
-5 -9 -9 -18 -3 -50 1 -70 8 -90 33 -147 45 -166 34 -21 -13 -24 -7 -29 56 -3
38 -1 42 17 38 11 -3 48 -11 83 -18 34 -8 62 -11 62 -6 0 4 -13 10 -30 14 -21
5 -30 13 -30 26 0 26 40 26 47 0z m-1431 -27 c-3 -9 -6 -36 -6 -61 0 -45 0
-46 -20 -28 -17 16 -25 17 -59 7 -21 -7 -46 -12 -56 -12 -9 0 -28 -9 -42 -20
-27 -21 -78 -26 -103 -10 -12 8 -10 10 8 10 13 0 21 4 17 10 -3 5 11 18 32 29
54 29 19 27 -113 -4 -108 -26 -132 -29 -122 -19 8 7 90 29 203 55 103 23 155
35 205 48 53 14 63 13 56 -5z"/>
</g>
</svg>
