<?xml version="1.0" standalone="no"?>
<!DOCTYPE svg PUBLIC "-//W3C//DTD SVG 20010904//EN"
 "http://www.w3.org/TR/2001/REC-SVG-20010904/DTD/svg10.dtd">
<svg version="1.0" xmlns="http://www.w3.org/2000/svg"
 width="250.000000pt" height="263.000000pt" viewBox="0 0 250.000000 263.000000"
 preserveAspectRatio="xMidYMid meet">
<metadata>
Created by potrace 1.15, written by Peter Selinger 2001-2017
</metadata>
<g transform="translate(0.000000,263.000000) scale(0.100000,-0.100000)"
fill="#000000" stroke="none">
<path d="M377 2476 c-60 -29 -89 -56 -113 -104 -11 -20 -20 -39 -21 -41 -1 -1
-17 9 -36 23 -43 33 -61 34 -53 4 3 -13 6 -35 6 -49 0 -14 24 -66 54 -115 l53
-89 -46 -23 c-53 -26 -79 -47 -104 -82 -24 -35 -21 -54 15 -91 26 -25 32 -39
29 -65 -3 -41 1 -41 42 -10 56 43 175 51 342 25 110 -17 107 -15 90 -49 -8
-16 -15 -36 -15 -45 0 -13 -4 -14 -21 -5 -11 7 -23 9 -26 7 -2 -3 -32 6 -66
19 -34 14 -71 22 -83 20 -38 -10 -104 -164 -104 -243 0 -31 -2 -34 -22 -28
-65 20 -116 49 -138 80 -44 60 -53 48 -48 -59 4 -82 10 -105 40 -168 36 -75
151 -211 188 -223 10 -3 39 3 64 15 62 28 161 28 169 1 3 -12 -3 -27 -13 -36
-53 -48 -45 -131 15 -166 26 -16 31 -24 27 -45 -2 -14 -11 -28 -18 -31 -8 -3
-14 -14 -14 -24 0 -12 -7 -19 -19 -19 -10 0 -33 -5 -50 -11 -29 -10 -32 -15
-27 -40 3 -15 1 -31 -4 -34 -18 -11 -10 -44 11 -50 12 -4 29 -15 38 -24 17
-17 17 -21 2 -54 -15 -34 -18 -37 -48 -31 -26 5 -33 3 -33 -9 0 -8 5 -17 11
-19 9 -3 9 -10 0 -27 -16 -28 -5 -78 20 -94 10 -6 19 -17 19 -23 0 -17 40 -65
53 -63 7 1 38 -23 69 -53 60 -58 86 -69 167 -67 64 2 102 12 93 24 -4 6 -28
23 -54 38 -69 40 -104 91 -99 146 1 13 46 10 87 -6 23 -8 16 14 -13 43 -23 23
-24 27 -10 36 24 13 21 25 -5 24 -21 -1 -23 3 -23 59 0 59 1 60 26 57 19 -2
31 4 43 24 l18 26 20 -33 c12 -20 21 -51 21 -76 0 -42 18 -51 32 -15 4 12 12
5 28 -28 33 -65 47 -63 40 4 -4 38 -2 56 5 56 7 0 20 17 31 37 l20 38 0 -30
c0 -16 -6 -47 -13 -68 -10 -28 -11 -37 -2 -37 12 0 56 52 56 67 0 4 4 14 9 21
6 10 21 0 59 -40 45 -46 51 -58 51 -93 -1 -22 -4 -51 -8 -65 -6 -21 -8 -22
-14 -7 -7 18 -42 23 -52 8 -3 -5 6 -26 19 -46 14 -20 23 -42 20 -50 -3 -7 -1
-16 5 -20 15 -9 14 -45 -2 -45 -7 0 -18 5 -25 12 -17 17 -25 4 -29 -55 -4 -57
-5 -57 82 -171 28 -36 55 -66 60 -66 9 0 65 80 65 93 0 3 14 27 31 52 25 36
33 61 37 111 4 54 2 64 -11 64 -9 0 -19 -4 -22 -10 -3 -5 -12 -10 -20 -10 -10
0 -13 20 -14 85 0 70 3 87 18 97 10 7 21 25 24 39 5 21 2 28 -18 39 l-25 14
29 30 c17 17 34 42 40 56 7 18 10 20 10 7 1 -26 36 -89 62 -112 l22 -20 -7 25
c-3 14 -8 45 -11 70 l-5 45 15 -33 c11 -24 20 -32 32 -28 16 6 15 -3 -3 -96
-8 -42 16 -27 45 27 l23 44 19 -22 18 -22 -1 35 c0 19 8 54 19 76 16 37 21 40
36 29 9 -7 17 -17 17 -22 0 -6 11 -13 25 -15 14 -3 25 -1 25 5 0 7 3 8 10 1 6
-6 6 -22 0 -44 -7 -24 -6 -38 2 -47 9 -11 8 -17 -3 -24 -8 -5 -20 -7 -26 -4
-7 2 -13 -2 -13 -10 0 -8 8 -15 17 -15 13 0 9 -9 -17 -35 -40 -41 -35 -52 15
-35 44 14 65 8 65 -21 0 -38 -37 -83 -99 -123 -34 -21 -61 -42 -61 -46 0 -13
105 -23 153 -16 53 9 109 45 146 96 17 23 31 35 33 28 3 -7 26 17 52 52 43 59
47 69 43 108 -3 23 -1 45 4 48 19 11 8 24 -22 24 -28 0 -68 30 -69 53 0 11 29
39 54 53 12 6 19 17 17 25 -2 8 -4 31 -4 51 0 32 -3 38 -30 47 -16 6 -38 11
-48 11 -11 0 -19 5 -19 12 0 6 -6 19 -14 27 -22 25 -31 71 -14 71 27 0 68 54
68 89 0 35 -23 87 -41 93 -7 2 -9 12 -5 26 6 19 14 22 64 22 35 0 74 -8 101
-20 24 -11 49 -20 56 -20 21 0 129 110 167 170 20 30 43 78 53 105 18 52 26
197 12 212 -5 4 -24 -11 -43 -34 -24 -29 -52 -48 -90 -62 -30 -12 -58 -21 -62
-21 -4 0 -8 21 -9 48 -3 87 -68 224 -109 230 -11 2 -45 -8 -76 -22 -37 -16
-60 -22 -64 -15 -4 7 -12 5 -23 -5 -17 -15 -19 -13 -34 26 -10 23 -14 45 -9
49 8 7 148 28 227 33 76 6 175 -13 211 -40 42 -32 48 -30 41 14 -6 34 -3 39
28 62 47 34 46 65 -2 112 -21 20 -58 46 -83 58 -25 12 -46 24 -48 25 -2 2 18
36 44 76 35 53 51 91 60 136 13 73 8 77 -46 38 l-34 -25 -13 28 c-18 37 -62
86 -93 103 -61 33 -130 49 -130 29 0 -6 24 -37 54 -69 64 -70 84 -122 66 -177
-9 -27 -16 -34 -29 -29 -9 4 -22 9 -30 13 -11 4 -13 -3 -9 -35 7 -46 -11 -63
-64 -63 -59 0 -78 -10 -72 -35 4 -16 -1 -26 -20 -38 -34 -23 -37 -21 -26 9 6
14 10 36 10 49 0 14 9 39 20 57 34 55 20 114 -17 77 -9 -9 -21 -2 -49 25 -36
35 -78 55 -91 42 -3 -3 -1 -12 6 -20 19 -22 25 -109 11 -165 -8 -34 -25 -65
-51 -93 -37 -42 -38 -42 -39 -17 0 15 -7 32 -14 39 -12 9 -20 2 -43 -45 l-29
-56 -12 36 c-8 19 -19 35 -25 35 -7 0 -36 -11 -65 -25 -30 -14 -58 -25 -63
-25 -5 0 -21 25 -36 55 -15 30 -33 55 -40 55 -7 0 -30 -16 -52 -35 -21 -19
-49 -35 -61 -35 -12 0 -40 16 -61 35 -22 19 -46 35 -54 35 -8 0 -27 -25 -42
-55 -15 -30 -32 -55 -37 -55 -5 0 -28 9 -50 20 -68 33 -89 31 -102 -10 l-12
-35 -28 58 c-15 31 -32 57 -36 57 -13 0 -30 -41 -24 -57 6 -14 4 -14 -11 -2
-74 58 -108 184 -74 267 8 18 11 35 8 38 -10 11 -49 -8 -87 -42 -23 -21 -41
-31 -45 -24 -3 5 -13 10 -21 10 -21 0 -18 -62 5 -91 10 -13 20 -47 23 -76 5
-55 5 -55 -41 -24 -12 8 -13 12 -1 25 17 22 12 26 -51 33 -81 9 -90 16 -83 63
7 41 -8 54 -33 29 -17 -17 -30 -4 -37 36 -11 57 10 110 64 165 28 28 50 57 50
65 0 22 -37 18 -93 -9z m307 -399 c14 -21 26 -41 26 -46 0 -15 100 -102 110
-96 6 3 13 -1 16 -9 3 -9 17 -16 30 -16 12 0 27 -6 31 -13 4 -8 15 -17 23 -20
8 -4 35 -18 59 -32 24 -14 47 -23 50 -20 3 3 0 20 -7 37 -15 41 -9 46 14 11
10 -15 28 -36 41 -46 13 -10 23 -28 23 -39 l0 -21 23 21 c28 26 69 28 92 6 19
-20 33 -11 15 11 -10 12 -9 16 3 21 9 3 24 1 34 -5 10 -6 13 -11 6 -11 -6 0
-13 -10 -15 -22 -2 -19 -10 -23 -48 -26 -56 -4 -69 -16 -47 -40 12 -13 14 -21
6 -29 -18 -18 30 -43 82 -43 48 0 88 27 74 50 -4 6 -1 17 5 25 18 21 -3 43
-35 37 -17 -3 -25 0 -25 10 0 37 57 51 98 22 13 -9 22 -11 22 -4 0 6 5 8 10 5
6 -4 9 -3 8 2 -2 5 16 31 40 58 l42 50 -14 -42 c-13 -37 -13 -43 -1 -43 8 0
17 5 20 11 4 5 17 15 28 20 34 15 68 36 80 48 6 6 19 11 29 11 9 0 21 8 27 17
5 10 13 15 17 11 16 -17 119 97 144 160 12 27 30 29 30 2 0 -31 -22 -73 -55
-102 l-30 -28 28 10 c16 6 38 15 50 22 12 6 33 12 47 13 14 2 32 5 41 9 9 4
25 -2 39 -14 l23 -20 -30 0 c-38 0 -93 -19 -93 -32 0 -7 12 -8 33 -2 27 6 148
15 221 15 11 0 26 -6 33 -14 12 -12 11 -14 -4 -12 -10 0 -24 5 -32 9 -7 5 -16
4 -20 -1 -3 -6 -51 -13 -106 -17 -55 -4 -104 -11 -110 -15 -5 -4 -23 -7 -40
-6 -16 1 -32 -1 -35 -5 -10 -12 -91 -40 -101 -35 -5 4 -12 -1 -15 -9 -3 -9
-16 -16 -28 -16 -12 0 -32 -9 -44 -20 -12 -11 -28 -17 -37 -14 -14 6 -14 8 1
25 9 11 12 19 7 19 -6 0 -17 -7 -24 -16 -11 -14 -10 -18 6 -30 15 -11 17 -18
9 -31 -6 -9 -17 -18 -25 -21 -8 -2 -6 3 5 12 22 18 17 30 -8 20 -9 -3 -16 -15
-16 -26 0 -15 -5 -18 -22 -13 -18 5 -20 4 -8 -4 13 -9 12 -12 -5 -25 -25 -19
-38 -20 -30 -3 4 6 0 4 -8 -6 -11 -13 -16 -15 -19 -5 -3 7 -7 -1 -10 -19 -2
-18 -1 -30 3 -27 11 7 39 -7 33 -17 -3 -5 -10 -9 -15 -9 -6 0 -7 5 -4 10 3 6
4 10 1 10 -5 0 -36 -66 -36 -77 0 -2 9 -2 19 2 32 10 32 -9 1 -43 -16 -17 -31
-41 -35 -52 -9 -28 -28 -26 -20 3 6 21 6 21 -11 -3 -21 -29 -35 -40 -45 -34
-4 2 -12 -3 -18 -10 -10 -12 -8 -13 11 -9 13 3 31 13 41 21 22 20 23 1 1 -41
-9 -18 -22 -41 -27 -52 -35 -66 -41 -83 -44 -115 -6 -67 -12 -93 -22 -103 -11
-11 -17 -1 -24 43 -3 16 -5 11 -6 -15 -1 -36 -2 -38 -17 -23 -9 9 -16 33 -16
54 0 43 -16 116 -27 124 -4 3 -17 25 -29 50 -37 74 -74 134 -88 143 -8 4 -14
15 -14 22 0 8 -4 15 -10 15 -5 0 -10 7 -10 15 0 11 7 14 24 9 24 -6 25 -5 13
25 -7 19 -18 31 -29 31 -10 0 -18 5 -18 11 0 5 3 8 8 6 10 -7 27 15 26 33 -1
8 -2 22 -3 30 -1 9 -4 11 -9 5 -13 -19 -66 0 -58 20 3 8 -2 11 -15 8 -14 -4
-19 0 -19 15 0 27 -17 37 -35 22 -12 -10 -15 -10 -15 2 0 20 -46 58 -70 58
-12 0 -23 7 -26 15 -4 9 -11 14 -18 13 -15 -4 -96 23 -96 32 0 4 -17 7 -37 8
-21 1 -63 6 -93 11 -30 5 -78 10 -107 10 -32 1 -53 6 -56 14 -3 9 -7 9 -20 -1
-11 -10 -21 -11 -34 -4 -16 9 -15 11 7 17 30 7 216 0 248 -10 13 -4 22 -3 22
3 0 12 -53 32 -89 33 -14 0 -20 3 -13 6 6 2 10 8 7 13 -8 14 33 22 53 11 11
-6 22 -8 24 -6 3 3 30 -6 61 -20 60 -26 77 -21 28 8 -27 16 -41 49 -41 100 0
24 1 23 34 -26z"/>
</g>
</svg>
